<svg id="Layer_1" data-name="Layer 1" xmlns="http://www.w3.org/2000/svg" viewBox="0 0 187 26.85"><defs><style>.cls-1{fill:#383d42;}</style></defs><path class="cls-1" d="M5.87.16a7.84,7.84,0,0,0-5,3.7C0,5.59,0,6,0,13.27l.16,7.57A7.39,7.39,0,0,0,6,26.68c.89.17,12.54.25,12.54.07s-1-4-1.06-4.07-2.08-.49-4.59-1c-5.84-1.27-5.66-1.24-6.15-1.81l-.42-.5V7.53L6.75,7c.49-.58.31-.54,6.15-1.81l4.59-1c.05,0,1.06-4,1.06-4.07S6.66,0,5.87.18Zm18.87,0c0,.29.93,3.89,1,4s2.27.55,5,1.12L36,6.55a1.93,1.93,0,0,1,.7.69c.26.45.3.94.3,6.18l-.3,6.18a2,2,0,0,1-.7.69c-.21.11-2.57.68-5.25,1.27l-5,1.12c-.4,1.31-.74,2.63-1,4,0,.18,1.17.22,6.31.17,7.1-.07,7.18-.09,9-1.31a7.42,7.42,0,0,0,2.79-3.66c.38-1.09.38-1.19.38-8.43L42.83,5A7.48,7.48,0,0,0,40,1.32C38.23.09,38.15.09,31.05,0c-5.14,0-6.31,0-6.31.16ZM55,5.72a71.6,71.6,0,0,0-3.4,8.76L49.31,22.4a11.65,11.65,0,0,0,1.31.05H51.9l.18-.7.63-2.23L53.15,18h8.94l.46,1.62.61,2.23.17.62h1.28l1.3-.05s-.32-1.24-.73-2.7a91.8,91.8,0,0,0-5-13.93l-.85-1.71H55.82ZM58.88,9l2.31,6.25s-1.59.06-3.58.06A24.92,24.92,0,0,1,54,15.16c0-.28,1.65-4.65,2.44-6.54.62-1.45.93-2,1.14-2s.54.6,1.27,2.31Zm8.66,4.28v9.19h2.6V4.06h-2.6Zm5.86-9a2.19,2.19,0,0,0-.72.82,1.16,1.16,0,0,0-.06,1.23,1.59,1.59,0,0,0,2,1,1.46,1.46,0,0,0,1.16-1.58,1.24,1.24,0,0,0-.54-1.2,1.49,1.49,0,0,0-1.82-.26Zm4.72,9v9.2l2,.15,3.78.14a4.47,4.47,0,0,0,2.73-.47,3.77,3.77,0,0,0,2.08-2.42,32.72,32.72,0,0,0,.12-4.48c0-3.62-.07-3.89-.41-4.54-.64-1.17-1.59-1.74-3.37-2a14.41,14.41,0,0,0-4,.23c-.31.09-.33,0-.33-2.43V4.07h-2.6Zm7.4-1.75a1.31,1.31,0,0,1,.74.65,40.54,40.54,0,0,1,0,7.14c-.25.67-1.06,1-2.61,1a17.23,17.23,0,0,1-2.15-.13L80.72,20V11.58l1-.16a9,9,0,0,1,3.85.05ZM104,13.24v9.2l1.59.08,3.32.21c2.23.13,3.63-.23,4.54-1.19,1.18-1.2,1.21-1.35,1.24-5.45,0-3,0-3.89-.18-4.56a3.89,3.89,0,0,0-3.64-2.72,15.94,15.94,0,0,0-4.06.23c-.16.05-.21-.5-.21-2.44V4.08H104Zm7.3-1.85a1.37,1.37,0,0,1,.67.47,56.08,56.08,0,0,1,.07,7.57c-.28.72-2.48,1-4.66.67L106.6,20V11.58l.94-.16a11.5,11.5,0,0,1,3.76,0Zm25.87-7.17a5.47,5.47,0,0,0-3.31,1.53c-1.3,1.3-1.38,1.78-1.38,7.67s.08,6.36,1.41,7.68a4.2,4.2,0,0,0,2,1.24,10.46,10.46,0,0,0,3.73.37,16,16,0,0,0,3.84-.31A10.19,10.19,0,0,0,145,22c.13-.08.11-.37-.08-1.15a7.5,7.5,0,0,0-.38-1.16,1.7,1.7,0,0,0-.89.11,16.42,16.42,0,0,1-5.57.43c-1.58-.2-2.17-.46-2.65-1.09-.33-.43-.35-.6-.35-5.68s0-5.26.35-5.68c.5-.64,1.07-.88,2.65-1.09a15.7,15.7,0,0,1,5.57.42l.87.24A8.06,8.06,0,0,0,145.16,5a11.05,11.05,0,0,0-1.37-.43,24.19,24.19,0,0,0-6.61-.31Zm10.28,9v9.19h2.44V4.06h-2.44Zm37-6.76V8.94l-.93-.1-1.3-.16A9.27,9.27,0,0,0,179,9.2,4.32,4.32,0,0,0,177.2,11c-.32.6-.36.94-.41,4.24-.06,4.44.07,5.09,1.24,6.25s2.31,1.37,4.44,1.24l3-.18,1.5-.1V4.08h-2.6Zm-.27,5c.26.12.27.48.27,4.33V20l-.6.11a9,9,0,0,1-3.6-.08,1.54,1.54,0,0,1-.68-.52,28,28,0,0,1-.16-3.84c0-3.89,0-4,.89-4.28a14.89,14.89,0,0,1,3.89.08ZM94.9,8.79c-.73.1-1.45.23-2.16.4-.88.22-1.1.33-1,.54s.16.62.28,1.08a3.74,3.74,0,0,0,.29.91,7.57,7.57,0,0,0,1.56-.18c2.72-.57,4.56-.31,4.82.67a7.18,7.18,0,0,1,.13,1.31l0,.91-1.55-.08c-4.13-.21-6.62,1.34-6.65,4.12a4,4,0,0,0,1.28,3.16c1,.94,2.12,1.23,4.22,1.09l3.4-.18,1.76-.11-.1-10.94-.46-.77c-.91-1.53-3.07-2.25-5.81-1.9ZM98.69,17a9,9,0,0,1,0,3l-1.85.18c-2.72.26-3.71-.15-3.71-1.55a1.18,1.18,0,0,1,.49-1.14,2.68,2.68,0,0,1,1.27-.5l1-.16a14.08,14.08,0,0,1,2.82.2Zm22.17-8.25-2.17.42c-1.09.26-1.18.33-1.1.64l.29,1.2c.18.81.21.86.6.76,2.18-.56,4.28-.73,5.13-.42s.93.62.93,1.86V14.4h-2c-2.56,0-3.73.32-4.85,1.33A3.61,3.61,0,0,0,116.42,19c.27,2.65,2.16,3.94,5.54,3.73l3.41-.18,1.75-.11L127.07,17c0-5.17-.06-5.42-.4-6-.93-1.75-3-2.53-5.83-2.2Zm3.22,8.13h.44V20l-.93.11c-1.79.23-3.53.18-4-.13a1.62,1.62,0,0,1,.05-2.65,7.15,7.15,0,0,1,3.16-.46l1.27.07Zm31.54-8.14a4.6,4.6,0,0,0-2.52,1.53c-.83,1.09-.91,1.63-.91,5.54s.11,4.47,1.19,5.6,1.56,1.23,4,1.23,3.09-.17,4.13-1.41,1.11-1.76,1.06-5.88c-.05-3.35-.08-3.67-.4-4.29A4.87,4.87,0,0,0,160.05,9a10.28,10.28,0,0,0-4.41-.3Zm3.58,2.7c.84.43,1,1,1,4.22,0,3-.11,3.61-.81,4.23a5.13,5.13,0,0,1-3.63.16c-1-.45-1.09-.92-1.09-4.39s.1-3.76,1-4.22A6.55,6.55,0,0,1,159.2,11.46ZM72.93,15.68v6.76h2.44V8.92H72.93Zm91.69-6.54c-.05.13-.06,2.57,0,5.42,0,4.68.08,5.24.36,5.76,1,1.81,2.58,2.55,5.24,2.38l4.62-.28V8.94h-2.47V20l-.77.12a8.32,8.32,0,0,1-3.74-.15l-.57-.32s-.08-2.41-.13-5.31L167.05,9l-1.19,0c-.9,0-1.21,0-1.27.17ZM17.48,13.07a1.11,1.11,0,0,0,0,.54c0,.28.35.3,4.17.34l4.1,0V12.85H21.65c-3.41,0-4.11,0-4.17.23Z"/></svg>