<svg id="Layer_1" data-name="Layer 1" xmlns="http://www.w3.org/2000/svg" viewBox="0 0 429.84 275.41"><defs><style>.cls-1{fill:#1a66b1;}.cls-2{fill:#2f76bc;}.cls-3{fill:#2f8dcd;}.cls-4{fill:#39a6de;}</style></defs><path class="cls-1" d="M163.89,76.51h0l90.24,54.05,53.76-22.63a87,87,0,0,1,34.62-7.13c2,0,3.95.09,5.9.21A134.33,134.33,0,0,0,106.07,60.53l1.37,0A106.88,106.88,0,0,1,163.89,76.51Z" transform="translate(0 0)"/><path class="cls-2" d="M163.9,76.5a106.93,106.93,0,0,0-56.46-16l-1.37,0A107.42,107.42,0,0,0,19.3,229.37l79.55-33.48L134.23,181,213,147.85l41.13-17.3Z" transform="translate(0 0)"/><path class="cls-3" d="M348.41,101c-2-.14-3.93-.21-5.9-.21a87,87,0,0,0-34.6,7.14l-53.78,22.62,15.59,9.34,51.11,30.61,22.3,13.35,76.25,45.67a87.31,87.31,0,0,0-71-128.52Z" transform="translate(0 0)"/><path class="cls-4" d="M343.13,183.85l-22.3-13.35-51.11-30.63-15.58-9.32L213,147.85,134.24,181,98.85,195.89,19.28,229.37a107.31,107.31,0,0,0,88.16,46H342.51a87.29,87.29,0,0,0,76.87-45.89Z" transform="translate(0 0)"/></svg>