<svg id="Layer_1" data-name="Layer 1" xmlns="http://www.w3.org/2000/svg" viewBox="0 0 596.1 596.1"><defs><style>.cls-1{fill:#7a80be;}.cls-2,.cls-3{fill:#010101;isolation:isolate;}.cls-2{opacity:0.1;}.cls-3{opacity:0.2;}.cls-4{fill:#555eaa;}.cls-5{fill:#5058a7;}.cls-6{fill:#fff;}.cls-7{fill:none;}</style></defs><circle class="cls-1" cx="316.68" cy="111.77" r="86.94"/><path class="cls-2" d="M310.48,130.4H231.74l.39,1.73,0,.15.41,1.6A87,87,0,0,0,335.31,196.7V155.23A24.9,24.9,0,0,0,310.48,130.4Z"/><path class="cls-3" d="M291.85,149H238.12a87,87,0,0,0,78.56,49.68V173.86A24.9,24.9,0,0,0,291.85,149Z"/><circle class="cls-4" cx="512.28" cy="139.71" r="65.2"/><path class="cls-4" d="M568.16,223.54H421.72a11.92,11.92,0,0,0-11.92,11.92V386.54a95.4,95.4,0,0,0,73.9,94.7A93.22,93.22,0,0,0,596.1,390V251.48A27.94,27.94,0,0,0,568.16,223.54Z"/><path class="cls-1" d="M465.71,251.48v177A148.94,148.94,0,0,1,187.77,503a133.25,133.25,0,0,1-9.31-18.63,156,156,0,0,1-6.15-18.62,154.05,154.05,0,0,1-4.66-37.26v-177a27.91,27.91,0,0,1,27.87-27.94H437.76a27.91,27.91,0,0,1,27.95,27.87Z"/><path class="cls-3" d="M291.85,149H238.12a87,87,0,0,0,78.56,49.68V173.86A24.9,24.9,0,0,0,291.85,149Z"/><path class="cls-2" d="M335.31,223.54v236a24.6,24.6,0,0,1-19.38,24,17.92,17.92,0,0,1-5.4.74H178.46a156,156,0,0,1-6.15-18.62,154.05,154.05,0,0,1-4.66-37.26v-177a27.91,27.91,0,0,1,27.87-27.94H335.31Z"/><path class="cls-3" d="M316.68,223.54V478.19a17.66,17.66,0,0,1-.75,5.4,24.58,24.58,0,0,1-24,19.37H187.77a133.25,133.25,0,0,1-9.31-18.63,156,156,0,0,1-6.15-18.62,154.05,154.05,0,0,1-4.66-37.26v-177a27.91,27.91,0,0,1,27.87-27.94H316.68Z"/><path class="cls-3" d="M316.68,223.54V440.93a24.9,24.9,0,0,1-24.78,24.78H172.31a154.05,154.05,0,0,1-4.66-37.26v-177a27.91,27.91,0,0,1,27.87-27.94H316.68Z"/><path class="cls-3" d="M195.6,223.54a27.9,27.9,0,0,0-27.95,27.87v177a154.05,154.05,0,0,0,4.66,37.26h101a24.89,24.89,0,0,0,24.77-24.78V223.54Z"/><path class="cls-5" d="M24.83,149H273.22a24.83,24.83,0,0,1,24.83,24.83h0V422.25a24.83,24.83,0,0,1-24.83,24.83H24.83A24.83,24.83,0,0,1,0,422.25H0V173.86A24.83,24.83,0,0,1,24.83,149Z"/><path class="cls-6" d="M223.17,241.7h-55.7V391.1H130.92V241.7h-56V205H223.17Z"/><path class="cls-7" d="M0,0H596.1V596.1H0Z"/></svg>