<svg id="Layer_1" data-name="Layer 1" xmlns="http://www.w3.org/2000/svg" viewBox="0 0 406.38 406.38"><defs><style>.cls-1{fill:#20a366;}.cls-2{fill:#157d41;}.cls-3{fill:#48ba80;}.cls-4{fill:#1a5d38;}.cls-5,.cls-6{fill:#010101;isolation:isolate;}.cls-5{opacity:0.1;}.cls-6{opacity:0.2;}.cls-7{fill:#fff;}.cls-8{fill:none;}</style></defs><path class="cls-1" d="M254,25.4H118.52a16.93,16.93,0,0,0-16.93,16.93h0v72L254,203.19l76.2,32.15,76.2-32.15v-88.9Z"/><path class="cls-2" d="M101.59,114.29H254v88.9H101.59Z"/><path class="cls-3" d="M389.45,25.4H254v88.89h152.4v-72A16.93,16.93,0,0,0,389.45,25.4Z"/><path class="cls-4" d="M254,203.19H101.59V364.05A16.93,16.93,0,0,0,118.52,381H389.45a16.93,16.93,0,0,0,16.93-16.93h0v-72Z"/><path class="cls-2" d="M254,203.19h152.4v88.89H254Z"/><path class="cls-5" d="M211.66,88.89H101.59V330.18H211.66a17,17,0,0,0,16.93-16.93V105.82A17,17,0,0,0,211.66,88.89Z"/><path class="cls-6" d="M199,101.59H101.59V342.88H199A17,17,0,0,0,215.89,326V118.52A17,17,0,0,0,199,101.59Z"/><path class="cls-6" d="M199,101.59H101.59V317.48H199a17,17,0,0,0,16.93-16.93v-182A17,17,0,0,0,199,101.59Z"/><path class="cls-6" d="M186.26,101.59H101.59V317.48h84.67a17,17,0,0,0,16.93-16.93v-182A17,17,0,0,0,186.26,101.59Z"/><path class="cls-2" d="M16.93,101.59H186.26a16.93,16.93,0,0,1,16.93,16.93h0V287.85a16.93,16.93,0,0,1-16.93,16.93H16.93A16.93,16.93,0,0,1,0,287.85H0V118.52a16.93,16.93,0,0,1,16.93-16.93Z"/><path class="cls-7" d="M44.87,266.68,86,203,48.32,139.69H78.61l20.55,40.47q2.82,5.76,3.89,8.59h.27c1.36-3.07,2.77-6.05,4.26-8.94l22-40.12h27.8l-38.6,63,39.58,64H128.72L105,222.24a38.58,38.58,0,0,1-2.83-6h-.35a28.47,28.47,0,0,1-2.75,5.76L74.63,266.68Z"/><path class="cls-8" d="M0,0H406.38V406.38H0Z"/></svg>