<svg id="Layer_1" data-name="Layer 1" xmlns="http://www.w3.org/2000/svg" viewBox="0 0 390.17 48.77"><defs><style>.cls-1{fill:#b0d235;}.cls-2{fill:#034ea2;}</style></defs><path class="cls-1" d="M323.22,47.84a1.09,1.09,0,0,1-.71.26H308.76a1.13,1.13,0,0,1-1-.63,1.11,1.11,0,0,1,.29-1.3L333.1,25a1.19,1.19,0,0,0,0-1.81L308.05,2a1.15,1.15,0,0,1-.41-1A1.09,1.09,0,0,1,308.72,0H322a1.11,1.11,0,0,1,.71.26l27.3,23,.25.21a.91.91,0,0,1,0,1.37l-.27.25Z"/><path class="cls-2" d="M55.1.34H46.71a1.83,1.83,0,0,0-1.83,1.83V29.28a.75.75,0,0,1-1.23.57l-31.06-27A10.32,10.32,0,0,0,5.75,0C3.6,0,0,.91,0,6.76V46a1.83,1.83,0,0,0,1.83,1.83h8.38A1.83,1.83,0,0,0,12,46V18.76a.75.75,0,0,1,1.24-.56L44.66,45.64a9.35,9.35,0,0,0,6.28,2.61c2.24,0,6-.92,6-7v-39A1.84,1.84,0,0,0,55.1.34Z"/><path class="cls-2" d="M116.47.34h-9.75a1.08,1.08,0,0,0-1.09,1.08V33.18c0,2.62-3.25,3.94-9.66,3.94H82.71c-6.53,0-9.85-1.32-9.85-3.94V1.42A1.08,1.08,0,0,0,71.78.34H61.9a1.08,1.08,0,0,0-1.08,1.08V33.67a13.45,13.45,0,0,0,1.11,5.74,12,12,0,0,0,3,4,13.76,13.76,0,0,0,4.23,2.5,26.89,26.89,0,0,0,4.81,1.31,38.48,38.48,0,0,0,5.09.54c1.69.06,3.28.09,4.76.09H94.58c7.93,0,13.56-1.1,17.24-3.35s5.74-6,5.74-10.8V1.42A1.08,1.08,0,0,0,116.47.34Z"/><path class="cls-2" d="M173.49,8.72V2.47A2.2,2.2,0,0,0,171.3.28H123.6a2.19,2.19,0,0,0-2.19,2.19V8.72a2.19,2.19,0,0,0,2.19,2.19h16.68a1.11,1.11,0,0,1,1.11,1.1V45.63a2.19,2.19,0,0,0,2.19,2.19h7.67a2.19,2.19,0,0,0,2.19-2.19V12a1.1,1.1,0,0,1,1.1-1.1h16.75A2.2,2.2,0,0,0,173.49,8.72Z"/><path class="cls-2" d="M199.43,3.55a7.67,7.67,0,0,0-12.88.08L157.13,46.11a1.09,1.09,0,0,0,.08,1.34,1.19,1.19,0,0,0,.89.37h11.57a1.08,1.08,0,0,0,.91-.5L178,36a.89.89,0,0,1,.74-.39h28.36a.86.86,0,0,1,.73.4l7.56,11.38a1.07,1.07,0,0,0,.91.49h11.09a1.09,1.09,0,0,0,.9-1.7ZM186,24l6.11-8.78a.7.7,0,0,1,1.15,0l6.19,8.72a.62.62,0,0,1-.5,1H186.46A.57.57,0,0,1,186,24Z"/><path class="cls-2" d="M286.22.34H277.6a1.71,1.71,0,0,0-1.71,1.71V29.54a.62.62,0,0,1-1,.47L243.61,2.81A10.33,10.33,0,0,0,236.76,0C234.61,0,231,.91,231,6.76V46.11a1.72,1.72,0,0,0,1.71,1.71h8.62a1.72,1.72,0,0,0,1.72-1.71V18.5a.63.63,0,0,1,1-.47l31.57,27.61A9.37,9.37,0,0,0,282,48.25c2.23,0,6-.92,6-7V2.05A1.71,1.71,0,0,0,286.22.34Z"/><rect class="cls-2" x="291.78" y="0.34" width="12.04" height="47.48" rx="1.09"/><path class="cls-2" d="M354.18,20.16a1.18,1.18,0,0,0,1.52,0L377.6,2a1.13,1.13,0,0,0,.41-1A1.09,1.09,0,0,0,376.93,0H363.7a1.11,1.11,0,0,0-.71.26L347.63,12.79a1.17,1.17,0,0,0,0,1.79Z"/><path class="cls-2" d="M354.1,28.12a1.17,1.17,0,0,1,1.53,0l22.22,18.15a1.16,1.16,0,0,1,.42,1,1.1,1.1,0,0,1-1.09.91H364a1.08,1.08,0,0,1-.7-.26L348,35.26a1.18,1.18,0,0,1,0-1.8Z"/><path class="cls-2" d="M390.17,44.34a4.52,4.52,0,1,1-4.48-4.4A4.43,4.43,0,0,1,390.17,44.34Zm-7.91,0a3.42,3.42,0,0,0,3.43,3.52A3.37,3.37,0,0,0,389,44.37a3.39,3.39,0,1,0-6.78,0ZM385,46.63h-1V42.22a12.49,12.49,0,0,1,1.69-.13,2.31,2.31,0,0,1,1.5.35,1.1,1.1,0,0,1,.45.94,1.13,1.13,0,0,1-.91,1v.06c.43.13.65.48.78,1.07a4,4,0,0,0,.32,1.08h-1.07a3.9,3.9,0,0,1-.35-1.08c-.08-.46-.35-.67-.91-.67H385Zm0-2.48h.48c.57,0,1-.18,1-.64s-.3-.67-.94-.67a2.26,2.26,0,0,0-.57.06Z"/></svg>