<svg id="Layer_1" data-name="Layer 1" xmlns="http://www.w3.org/2000/svg" viewBox="0 0 158.2 149.05"><defs><style>.cls-1{fill:#010101;fill-opacity:0.45;opacity:0.84;isolation:isolate;}.cls-1,.cls-10,.cls-11,.cls-12,.cls-13,.cls-14,.cls-15,.cls-16,.cls-17,.cls-18,.cls-19,.cls-2,.cls-21,.cls-22,.cls-23,.cls-24,.cls-25,.cls-26,.cls-27,.cls-3,.cls-4,.cls-5,.cls-6,.cls-7,.cls-8,.cls-9{fill-rule:evenodd;}.cls-2{fill:#bb3026;}.cls-3{fill:#bd3026;}.cls-4{fill:#c33027;}.cls-5{fill:#b52e25;}.cls-6{fill:#b42c25;}.cls-7{fill:#b02a25;}.cls-8{fill:#ae2824;}.cls-9{fill:#a82623;}.cls-10{fill:#a62623;}.cls-11{fill:#a12622;}.cls-12{fill:#9c2721;}.cls-13{fill:#992721;}.cls-14{fill:#962421;}.cls-15{fill:#922220;}.cls-16{fill:#8f211e;}.cls-17{fill:#8c201e;}.cls-18{fill:#88201c;}.cls-19{fill:#85201c;}.cls-20{fill:none;stroke:#010101;stroke-miterlimit:3.2;stroke-width:1.28px;}.cls-21{fill:#801e1d;}.cls-22{fill:#d93327;}.cls-23{fill:#e64147;}.cls-24{fill:#e13734;}.cls-25{fill:#67686a;}.cls-26{fill:#d02b27;}.cls-27{fill:#ceccc9;}</style></defs><g id="g3101"><g id="g4355"><path id="rect3303" class="cls-1" d="M16.28,70.53l12.21-.81a9.58,9.58,0,0,1,6.84,2.72L51.42,89.82c1.53,1.66.95,3.15-1.3,3.27-16.56,1-16.47,1.08-17,.26L15,73.8C13.44,72.15,14,70.69,16.28,70.53Z"/><path id="path71" class="cls-2" d="M96,73.05,85.38,62.5l.11,0L96.18,73A.29.29,0,0,1,96,73.05Z"/><path id="path79" class="cls-3" d="M96.18,73,85.49,62.48a1.57,1.57,0,0,0,.4-.09L96.58,72.94A1.34,1.34,0,0,1,96.18,73Z"/><path id="path87" class="cls-4" d="M96.58,72.94,85.89,62.39a3.56,3.56,0,0,0,.6-.23L97.14,72.71A4.68,4.68,0,0,1,96.58,72.94Z"/><path id="path95" class="cls-3" d="M97.14,72.71,86.49,62.16a3.79,3.79,0,0,0,.36-.22L97.48,72.48A1.85,1.85,0,0,1,97.14,72.71Z"/><path id="path103" class="cls-2" d="M97.48,72.48,86.83,61.94a1.72,1.72,0,0,0,.19-.17L97.68,72.31A.69.69,0,0,1,97.48,72.48Z"/><path id="path111" class="cls-5" d="M97.68,72.31,87,61.77a.75.75,0,0,0,.17-.14L97.85,72.17A.55.55,0,0,1,97.68,72.31Z"/><path id="path119" class="cls-6" d="M97.85,72.17,87.19,61.63c0-.06.09-.09.12-.15L98,72Z"/><path id="path127" class="cls-7" d="M98,72,87.31,61.48a.49.49,0,0,0,.11-.14L98.11,71.89A.39.39,0,0,0,98,72Z"/><path id="path135" class="cls-8" d="M98.11,71.89,87.42,61.34a.22.22,0,0,0,.11-.14L98.19,71.77S98.14,71.86,98.11,71.89Z"/><path id="path143" class="cls-9" d="M98.19,71.77,87.53,61.2s.06-.09.09-.11L98.28,71.63A.85.85,0,0,0,98.19,71.77Z"/><path id="path151" class="cls-10" d="M98.28,71.63,87.62,61.09a1.09,1.09,0,0,0,.08-.15L98.36,71.49Z"/><path id="path159" class="cls-11" d="M98.36,71.49,87.7,60.94s0-.08.06-.14L98.42,71.35C98.39,71.4,98.39,71.46,98.36,71.49Z"/><path id="path167" class="cls-12" d="M98.42,71.35,87.76,60.8a.2.2,0,0,0,.06-.14L98.48,71.21A.22.22,0,0,1,98.42,71.35Z"/><path id="path175" class="cls-13" d="M98.48,71.23,87.82,60.66a.2.2,0,0,0,.05-.14L98.53,71.09A.6.6,0,0,1,98.48,71.23Z"/><path id="path183" class="cls-14" d="M98.53,71.09,87.87,60.52s0-.09.06-.14L98.59,70.92C98.56,71,98.56,71,98.53,71.09Z"/><path id="path191" class="cls-15" d="M98.59,70.92,87.93,60.38s0-.09,0-.14L98.65,70.78C98.62,70.84,98.62,70.89,98.59,70.92Z"/><path id="path199" class="cls-16" d="M98.65,70.78,88,60.24c0-.06,0-.12.06-.17L98.67,70.61C98.67,70.67,98.65,70.72,98.65,70.78Z"/><path id="path207" class="cls-17" d="M98.67,70.61,88,60.07a.75.75,0,0,1,0-.2L98.7,70.41C98.7,70.47,98.67,70.55,98.67,70.61Z"/><path id="path215" class="cls-18" d="M98.7,70.41,88,59.87v-.2L98.7,70.19Z"/><path id="path223" class="cls-19" d="M98.7,70.19,88,59.67v-.09L98.7,70.16Z"/><path id="path231" class="cls-18" d="M98.7,66.44,88,55.9l16.13-1.42L114.8,65Z"/><path id="path236" class="cls-18" d="M98.7,66.44,88,55.9l16.13-1.42L114.8,65Z"/><path id="path241" class="cls-18" d="M98.7,70.16,88,59.58V55.9L98.7,66.42Z"/><path id="path246" class="cls-4" d="M56.41,76.51,45.75,66,85.41,62.5,96,73.05Z"/><path id="path251" class="cls-15" d="M54.45,75.83,43.8,65.28c0,.06.05.09.11.09L54.57,75.94Z"/><path id="path259" class="cls-14" d="M54.57,75.94,43.91,65.37l.17.17L54.74,76.08A1.15,1.15,0,0,1,54.57,75.94Z"/><path id="path267" class="cls-13" d="M54.74,76.08,44.08,65.54a.58.58,0,0,0,.14.08L54.91,76.17Z"/><path id="path275" class="cls-12" d="M54.91,76.17,44.22,65.62l.17.09L55.05,76.25A.16.16,0,0,1,54.91,76.17Z"/><path id="path283" class="cls-11" d="M55.05,76.25,44.39,65.71a.58.58,0,0,1,.14.08L55.22,76.34Z"/><path id="path291" class="cls-10" d="M55.22,76.34,44.53,65.79a.35.35,0,0,1,.17.06L55.36,76.39Z"/><path id="path299" class="cls-9" d="M55.36,76.39,44.7,65.85c.06,0,.12,0,.17.06L55.53,76.45Z"/><path id="path307" class="cls-8" d="M55.53,76.45,44.87,65.91l.17,0L55.7,76.48C55.64,76.48,55.59,76.45,55.53,76.45Z"/><path id="path315" class="cls-7" d="M55.7,76.48,45,65.93c.06,0,.12,0,.17,0L55.87,76.51A.34.34,0,0,1,55.7,76.48Z"/><path id="path323" class="cls-6" d="M55.87,76.51,45.21,66h.2L56.07,76.54C56,76.54,56,76.51,55.87,76.51Z"/><path id="path331" class="cls-5" d="M56.07,76.54,45.41,66a.46.46,0,0,0,.2,0L56.3,76.54Z"/><path id="path339" class="cls-2" d="M56.3,76.54,45.61,66a.24.24,0,0,1,.14,0L56.41,76.51A.22.22,0,0,1,56.3,76.54Z"/><path id="path4228" class="cls-20" d="M27.65,81.71,38.33,92.2"/><path id="path347" class="cls-21" d="M39,92.47,28.32,81.89A4.38,4.38,0,0,1,27,79L37.64,89.49A4.87,4.87,0,0,0,39,92.47Z"/><path id="path355" class="cls-19" d="M37.64,89.52,27,79a1.85,1.85,0,0,1,0-.39L37.64,89.09A3.09,3.09,0,0,0,37.64,89.52Z"/><path id="path363" class="cls-22" d="M114.8,65l0,17.35a5.7,5.7,0,0,1-5.13,5.55L42.69,93.77a4.58,4.58,0,0,1-5.07-4.68l0-17.32,16.08-1.41v3.71a2.39,2.39,0,0,0,2.66,2.41L96,73a3,3,0,0,0,2.66-2.89V66.42Z"/><path id="path368" class="cls-18" d="M37.64,71.8,27,61.26l16.12-1.42L53.74,70.38Z"/><path id="path373" class="cls-18" d="M37.64,71.8,27,61.26l16.12-1.42L53.74,70.38Z"/><path id="path378" class="cls-18" d="M37.64,89.09,27,78.6,27,61.26,37.67,71.77Z"/><path id="path383" class="cls-23" d="M114.69,35.77l.11,25.52L98.7,62.7l-.11-25.51Z"/><path id="path388" class="cls-24" d="M114.69,35.77l.11,25.52L98.7,62.7l-.11-25.51Z"/><path id="path393" class="cls-18" d="M98.73,62.7,88.07,52.19,88,26.67,98.62,37.22Z"/><path id="path398" class="cls-18" d="M98.62,37.22,88,26.67l16.1-1.41L114.69,35.8Z"/><path id="path403" class="cls-18" d="M98.62,37.22,88,26.67l16.1-1.41L114.69,35.8Z"/><path id="path408" class="cls-23" d="M53.66,41.13l.08,25.51-16.1,1.42-.11-25.54Z"/><path id="path413" class="cls-24" d="M53.66,41.13l.08,25.51-16.1,1.42-.11-25.54Z"/><path id="path418" class="cls-18" d="M37.67,68.06,27,57.51,26.9,32,37.56,42.52Z"/><path id="path423" class="cls-18" d="M37.53,42.55,26.9,32,43,30.61,53.66,41.13Z"/><path id="path428" class="cls-18" d="M98.7,33.42,88,22.88V19.67L98.7,30.22Z"/><path id="path433" class="cls-19" d="M98.7,30.22,88,19.67v-.2L98.7,30Z"/><path id="path441" class="cls-21" d="M98.7,30,88,19.5a2.52,2.52,0,0,0-.7-1.59L98,28.46A2.47,2.47,0,0,1,98.7,30Z"/><path id="path449" class="cls-2" d="M109.73,10.54,99.07,0h.23L110,10.54Z"/><path id="path457" class="cls-5" d="M110,10.57,99.3,0a.85.85,0,0,1,.39,0l10.66,10.54Z"/><path id="path465" class="cls-6" d="M110.35,10.54,99.69,0a1.38,1.38,0,0,1,.37,0l10.69,10.54A1.8,1.8,0,0,0,110.35,10.54Z"/><path id="path473" class="cls-7" d="M110.75,10.57,100.06,0c.14,0,.26,0,.37,0l10.66,10.57A1.35,1.35,0,0,0,110.75,10.57Z"/><path id="path481" class="cls-8" d="M111.09,10.63,100.43.06l.31.08L111.4,10.69A1,1,0,0,0,111.09,10.63Z"/><path id="path489" class="cls-9" d="M111.4,10.69,100.74.14l.32.09,10.65,10.54Z"/><path id="path497" class="cls-10" d="M111.71,10.77,101.06.23c.11,0,.19.08.31.11L112,10.89A2.21,2.21,0,0,1,111.71,10.77Z"/><path id="path505" class="cls-11" d="M112,10.89,101.37.34a1,1,0,0,0,.31.14L112.34,11Z"/><path id="path513" class="cls-12" d="M112.34,11,101.68.48c.08.06.2.12.28.17L112.62,11.2C112.54,11.14,112.42,11.08,112.34,11Z"/><path id="path521" class="cls-13" d="M112.62,11.2,102,.65a2.08,2.08,0,0,1,.31.23L112.93,11.4A1.84,1.84,0,0,0,112.62,11.2Z"/><path id="path529" class="cls-14" d="M112.93,11.4,102.27.88a1.29,1.29,0,0,1,.34.25l10.66,10.52Z"/><path id="path537" class="cls-15" d="M113.27,11.65,102.61,1.13l.2.17,10.66,10.55Z"/><path id="path545" class="cls-18" d="M37.64,38.72,27,28.2,27,11.37,37.7,21.91Z"/><path id="path550" class="cls-4" d="M42.77,16.38,32.14,5.87,99.1,0l10.63,10.54Z"/><path id="path555" class="cls-23" d="M42.77,16.36l67-5.84a4.61,4.61,0,0,1,5.1,4.67L114.77,32,98.7,33.42v-3.2a2.4,2.4,0,0,0-2.63-2.44L56.41,31.24a3,3,0,0,0-2.69,2.89v3.2l-16.1,1.39.05-16.81A5.69,5.69,0,0,1,42.77,16.36Z"/><path id="path560" class="cls-23" d="M42.77,16.36l67-5.84a4.61,4.61,0,0,1,5.1,4.67L114.77,32,98.7,33.42v-3.2a2.4,2.4,0,0,0-2.63-2.44L56.41,31.24a3,3,0,0,0-2.69,2.89v3.2l-16.1,1.39.05-16.81A5.69,5.69,0,0,1,42.77,16.36Z"/><path id="path565" class="cls-19" d="M37.7,21.91,27,11.37v-.12L37.7,21.8Z"/><path id="path573" class="cls-18" d="M37.7,21.8,27,11.25a2,2,0,0,1,0-.42L37.73,21.4A1.67,1.67,0,0,0,37.7,21.8Z"/><path id="path581" class="cls-17" d="M37.73,21.4,27.07,10.83a1.28,1.28,0,0,1,.06-.34L37.79,21A1.43,1.43,0,0,0,37.73,21.4Z"/><path id="path589" class="cls-16" d="M37.79,21,27.13,10.49a1.86,1.86,0,0,1,.05-.34L37.84,20.72A1,1,0,0,0,37.79,21Z"/><path id="path597" class="cls-15" d="M37.84,20.72,27.18,10.15l.09-.29L37.93,20.41C37.9,20.49,37.87,20.61,37.84,20.72Z"/><path id="path605" class="cls-14" d="M37.93,20.41,27.27,9.86a2.29,2.29,0,0,0,.08-.28L38,20.13C38,20.21,38,20.32,37.93,20.41Z"/><path id="path613" class="cls-13" d="M38,20.13,27.35,9.58a2,2,0,0,1,.12-.28L38.13,19.87C38.1,20,38,20,38,20.13Z"/><path id="path621" class="cls-12" d="M38.13,19.87,27.47,9.3A1,1,0,0,1,27.58,9L38.24,19.59A1.49,1.49,0,0,0,38.13,19.87Z"/><path id="path629" class="cls-11" d="M38.24,19.59,27.58,9a1.57,1.57,0,0,1,.14-.25L38.38,19.33C38.32,19.42,38.3,19.5,38.24,19.59Z"/><path id="path637" class="cls-10" d="M38.38,19.33,27.72,8.79a1.65,1.65,0,0,1,.14-.26L38.52,19.08A1.57,1.57,0,0,0,38.38,19.33Z"/><path id="path645" class="cls-9" d="M38.52,19.08,27.86,8.53,28,8.28,38.69,18.82Z"/><path id="path653" class="cls-8" d="M38.69,18.82,28,8.28,28.2,8,38.86,18.57Z"/><path id="path661" class="cls-7" d="M38.86,18.57,28.2,8a2.61,2.61,0,0,1,.23-.25L39.09,18.31C39,18.4,39,18.48,38.86,18.57Z"/><path id="path669" class="cls-6" d="M39.09,18.31,28.43,7.77a2.45,2.45,0,0,0,.23-.29L39.34,18.06Z"/><path id="path677" class="cls-5" d="M39.34,18.06,28.66,7.48A2.61,2.61,0,0,0,29,7.2L39.63,17.74C39.54,17.86,39.43,17.94,39.34,18.06Z"/><path id="path685" class="cls-2" d="M39.63,17.74,29,7.2l.4-.31L40,17.43A3.35,3.35,0,0,1,39.63,17.74Z"/><path id="path693" class="cls-3" d="M40,17.43,29.37,6.89a4.71,4.71,0,0,1,.65-.4L40.71,17C40.45,17.15,40.25,17.29,40,17.43Z"/><path id="path701" class="cls-4" d="M40.71,17,30,6.46A9.1,9.1,0,0,1,31.12,6L41.78,16.55A7.84,7.84,0,0,0,40.71,17Z"/><path id="path709" class="cls-3" d="M41.78,16.55,31.12,6a6.92,6.92,0,0,1,.77-.14L42.55,16.41C42.29,16.44,42,16.5,41.78,16.55Z"/><path id="path717" class="cls-2" d="M42.55,16.41,31.89,5.87a.72.72,0,0,1,.25,0L42.8,16.38A.72.72,0,0,0,42.55,16.41Z"/></g><g id="open-stack-text"><path id="path740" class="cls-25" d="M57.71,121.75c0-2.84-.17-4.28-.2-6.21h3.32l.2,2.92h.08a6.1,6.1,0,0,1,5.5-3.26c3.35,0,5.82,2.44,5.82,8.22v16.1h-3.8V124.1c0-2.86-.57-5.67-3.35-5.67-1.59,0-3.12,1.33-3.57,3.86a9.75,9.75,0,0,0-.2,2.18v15.05h-3.8ZM50,125.06c0-4.76-1.73-6.88-3.58-6.88-2.52,0-3.77,3.6-3.91,6.88Zm-7.54,2.81c0,7.37,2.92,8.93,5.64,8.93a8.68,8.68,0,0,0,4-.91l.65,2.81a12.53,12.53,0,0,1-5.3,1.13c-5.76,0-8.71-4.73-8.71-12,0-7.74,3.32-12.59,8.11-12.59s6.86,5.16,6.86,10.49a19.23,19.23,0,0,1-.14,2.18ZM23.7,130.76a8.34,8.34,0,0,0,.2,2c.76,3.43,2.52,4,3.54,4,3.17,0,4.22-4.36,4.22-9.18s-1.19-9.13-4.25-9.13c-1.76,0-3.34,2.13-3.54,4.31a8.79,8.79,0,0,0-.17,1.84ZM20,123c0-3.65-.15-5.78-.2-7.48h3.37l.17,3.09h.11c1.34-2.55,3.24-3.43,5.13-3.43,4.2,0,6.92,4.39,6.92,12.27,0,8.93-3.66,12.45-7.43,12.45a4.55,4.55,0,0,1-4.22-2.75H23.7v11.88H20ZM3.83,127.53c0,4,.68,9.36,4.14,9.36,3.31,0,4-5.59,4-9.36s-.68-9.3-4.08-9.3S3.83,123.87,3.83,127.53Zm11.93,0c0,9.24-4.25,12.39-8,12.39C3.46,139.92,0,136,0,127.59c0-8.73,3.91-12.39,8-12.39C12.36,115.2,15.76,119.23,15.76,127.53Z"/><path id="path765" class="cls-26" d="M141.36,126.68h.09c.45-.94.85-1.87,1.3-2.66l4.74-8.48h4.11l-6.32,10.09,6.91,13.89h-4.25l-5.19-11.31-1.39,2.24v9.07h-3.79V105.25h3.79Zm-7,12.25a8.1,8.1,0,0,1-4,.9c-5.24,0-8.76-4.25-8.76-12.16,0-6.89,3.46-12.47,9.47-12.47a7.6,7.6,0,0,1,3.38.74l-.74,3.12a6,6,0,0,0-2.75-.63c-3.86,0-5.53,4.54-5.53,9.24,0,5.59,2.13,9,5.64,9a5.67,5.67,0,0,0,2.75-.65Zm-20.78-11.85c-2,0-6.6.39-6.6,5.58,0,3.18,1.59,4.28,2.92,4.28,1.7,0,3.09-1.25,3.51-3.63a5.45,5.45,0,0,0,.17-1.39Zm3.72,7a47,47,0,0,0,.22,5.47h-3.4L113.9,137h-.15a5.35,5.35,0,0,1-4.79,2.95c-3.2,0-5.69-2.69-5.69-6.86,0-6,4.84-8.65,10.23-8.7v-.74c0-3.23-.85-5.39-3.8-5.39a7,7,0,0,0-4,1.22l-.85-2.66a10.67,10.67,0,0,1,5.64-1.59c4.8,0,6.84,3.12,6.84,8.48ZM96.72,110v5.61h4.62v2.89H96.72v14.23c0,3.12,1.1,4,2.49,4a7.67,7.67,0,0,0,1.53-.14l.2,2.92a8.42,8.42,0,0,1-2.83.39,4.62,4.62,0,0,1-3.74-1.44c-1-1.08-1.45-2.72-1.45-6V118.46H90v-2.89h3v-4.06ZM77.1,135.55A7.67,7.67,0,0,0,81,136.8a3.28,3.28,0,0,0,3.51-3.49c0-1.84-.65-3.06-3.06-4.7-3.12-2-4.79-4.06-4.79-6.78a6.4,6.4,0,0,1,6.58-6.63,8,8,0,0,1,4.28,1.25l-1,2.86a5.45,5.45,0,0,0-3.26-1.08,2.93,2.93,0,0,0-3.07,3.06c0,1.59.6,2.47,3,4.11,2.81,1.79,5,3.94,5,7.26,0,4.85-3.29,7.17-7.26,7.17a8,8,0,0,1-4.7-1.39Z"/><path id="registered-text" class="cls-27" d="M155.88,137.74h.22c.26,0,.46-.09.46-.29s-.12-.31-.43-.31c-.11,0-.2,0-.25,0Zm0,1.1h-.46v-2a4,4,0,0,1,.77-.09,1,1,0,0,1,.65.17.46.46,0,0,1,.2.43.49.49,0,0,1-.4.45v0c.2.05.29.22.34.48a2.82,2.82,0,0,0,.14.48h-.45a1.22,1.22,0,0,1-.17-.48c0-.2-.14-.31-.4-.31h-.22Zm-1.22-1a1.53,1.53,0,0,0,1.53,1.56,1.49,1.49,0,0,0,1.5-1.56,1.56,1.56,0,0,0-1.5-1.62A1.58,1.58,0,0,0,154.66,137.82Zm3.54,0a2,2,0,0,1-2,2,2,2,0,1,1,0-4A2,2,0,0,1,158.2,137.82Z"/></g></g></svg>