<svg id="Layer_1" data-name="Layer 1" xmlns="http://www.w3.org/2000/svg" viewBox="0 0 86.97 73.97"><defs><style>.cls-1{fill:#43b654;}</style></defs><path class="cls-1" d="M9.11,74H0V28.24a12.26,12.26,0,0,1,3.54-9.11,13.79,13.79,0,0,1,9.22-3.61H27.09c5.11,0,8.06,2.07,9.67,3.81a13,13,0,0,1,3.15,9.15V45.72c0,5-2,7.92-3.71,9.49a13.35,13.35,0,0,1-9.15,3.3H9.11ZM27.4,49.37A4.23,4.23,0,0,0,30,48.53a3.79,3.79,0,0,0,.85-2.85V28A4,4,0,0,0,30,25.46a4.26,4.26,0,0,0-2.94-.84H12.68c-3.57,0-3.57,2.69-3.57,3.61V49.36ZM77.86,0H87V45.77a12.22,12.22,0,0,1-3.54,9.11,13.75,13.75,0,0,1-9.21,3.6H59.89c-5.12,0-8.06-2.06-9.68-3.8a13,13,0,0,1-3.15-9.15V28.32c0-5,2-7.92,3.72-9.5a13.24,13.24,0,0,1,9.14-3.29H77.86ZM59.57,24.62a4.23,4.23,0,0,0-2.59.84,3.85,3.85,0,0,0-.84,2.86V46a4,4,0,0,0,.8,2.52,4.27,4.27,0,0,0,2.94.85H74.29c3.61,0,3.61-2.72,3.61-3.65V24.62Z"/></svg>