<?xml version="1.0" encoding="utf-8"?>
<!-- Generator: Adobe Illustrator 25.0.0, SVG Export Plug-In . SVG Version: 6.00 Build 0)  -->
<svg version="1.1" id="Layer_1" xmlns="http://www.w3.org/2000/svg" xmlns:xlink="http://www.w3.org/1999/xlink" x="0px" y="0px"
	 viewBox="0 0 2503.4 589.2" style="enable-background:new 0 0 2503.4 589.2;" xml:space="preserve">
<style type="text/css">
	.st0{fill:#ED2937;}
	.st1{fill:#010101;}
</style>
<g>
	<path class="st0" d="M519.5,339.6c51.2,0,125.2-10.6,125.2-71.5c0-4.7-0.1-9.4-1.3-14L613,121.7c-7.1-29.1-13.2-42.3-64.4-67.9
		C508.9,33.5,422.5,0,396.9,0c-23.8,0-30.9,30.9-59.1,30.9c-27.3,0-47.6-22.9-73.2-22.9c-24.7,0-40.6,16.7-52.9,51.1
		c0,0-34.4,97-38.8,111.1c-0.9,2.7-0.9,5.6-0.9,7.9C172,215.9,320.5,339.6,519.5,339.6 M652.7,292.8c7.1,33.5,7.1,37,7.1,41.5
		c0,57.3-64.4,89.1-149.1,89.1c-191.4,0-359-112-359-186.1c0-11.5,2.6-22.1,6.2-30C89.1,210.8,0,223.1,0,301.6
		c0,128.8,305.2,287.5,546.8,287.5c185.2,0,232-83.8,232-149.9C778.8,387.2,733.8,328.1,652.7,292.8"/>
	<path class="st1" d="M652.7,292.8c7.1,33.5,7.1,37,7.1,41.5c0,57.3-64.4,89.1-149.1,89.1c-191.4,0-359-112-359-186.1
		c0-11.5,2.6-22.1,6.2-30l15-37.1c-0.9,2.7-0.9,5.6-0.9,7.9c0,37.7,148.5,161.4,347.5,161.4c51.2,0,125.2-10.6,125.2-71.5
		c0-4.7-0.1-9.4-1.3-14L652.7,292.8z"/>
	<path class="st1" d="M2369.9,377.7c0,48.6,29.3,72.3,82.6,72.3c12.9,0,35.3-3,48.6-6.9v-56.4c-11.6,3.4-20.2,4.7-31.4,4.7
		c-22,0-30.1-6.9-30.1-27.5v-86.5h63.7v-58.1h-63.7v-73.6l-69.7,15v58.5h-46v58.1h46V377.7z M2153.3,378.9c0-15,15.1-22.4,37.8-22.4
		c15.1,0,28.9,2.2,41.3,5.2V391c-12.9,7.3-28,10.7-43.5,10.7C2166.7,401.7,2153.3,393.2,2153.3,378.9 M2174.6,450.8
		c24.5,0,44.3-5.2,62.8-17.6v13.8h68.8V301.1c0-55.5-37.4-86.1-99.8-86.1c-34.9,0-69.3,8.2-106.3,25l25,51.2
		c26.7-11.2,49-18.1,68.8-18.1c28.8,0,43.5,11.2,43.5,34v11.2c-16.3-4.3-33.6-6.4-51.6-6.4c-58.5,0-93.8,24.5-93.8,68.4
		C2092,420.3,2123.8,450.8,2174.6,450.8 M1796.4,446.9h74V329h123.9v117.9h74V145.7h-74v115.7h-123.9V145.7h-74V446.9z
		 M1514.3,332.9c0-32.7,25.8-57.7,59.8-57.7c18.9,0,36.1,6.5,48.2,17.6v79.6c-12.5,12.1-28.8,18.1-48.2,18.1
		C1540.6,390.6,1514.3,365.6,1514.3,332.9 M1623.2,446.9h68.8V130.7l-69.7,15.1v85.6c-17.2-9.9-37-15.1-58.1-15.1
		c-66.3,0-118.3,51.2-118.3,116.6c0,65.4,51.2,117,116.2,117c22.4,0,43.5-6.9,61.1-19.8V446.9z M1307.4,272.2
		c22,0,40.4,14.2,47.8,36.1H1260C1266.9,285.6,1284.2,272.2,1307.4,272.2 M1189.9,333.3c0,66.3,54.2,117.9,123.9,117.9
		c38.3,0,66.3-10.3,95.1-34.4l-46-40.9c-10.8,11.2-26.7,17.2-45.6,17.2c-25.8,0-46.9-14.2-56-36.2h162.2v-17.2
		c0-72.3-48.6-124.4-114.9-124.4C1242,215.4,1189.9,267.1,1189.9,333.3 M1069.9,209c24.5,0,38.3,15.5,38.3,34
		c0,18.5-13.8,34-38.3,34h-73.2v-68H1069.9z M922.7,446.9h74V337.2h56.4l56.8,109.7h82.6l-66.3-120.5c35.7-15.5,56.8-47.8,56.8-84.8
		c0-54.2-42.6-95.9-106.3-95.9h-154V446.9z"/>
</g>
</svg>
