<svg id="Layer_1" data-name="Layer 1" xmlns="http://www.w3.org/2000/svg" viewBox="0 0 255.74 179.01"><defs><style>.cls-1{fill:#17a0db;}.cls-2{fill:#fff;}</style></defs><path class="cls-1" d="M106.43,19.52A44.81,44.81,0,0,1,138.86,5.6,45.26,45.26,0,0,1,178.31,29a54.46,54.46,0,0,1,22.3-4.74c30.45,0,55.13,24.9,55.13,55.61s-24.68,55.62-55.13,55.62a54.72,54.72,0,0,1-10.86-1.08A40.3,40.3,0,0,1,136.94,151a46,46,0,0,1-85.48-2.08,42.22,42.22,0,0,1-8.77.91A43.22,43.22,0,0,1,21.34,69.33a49.67,49.67,0,0,1,85.09-49.81"/><path class="cls-2" d="M37,92.83c-.16.42.06.5.11.58a14.89,14.89,0,0,0,1.46.88,15.63,15.63,0,0,0,7.65,1.79c5.25,0,8.5-2.79,8.5-7.28v-.09c0-4.16-3.67-5.66-7.12-6.75l-.45-.15c-2.6-.84-4.85-1.57-4.85-3.28v-.1c0-1.46,1.31-2.54,3.35-2.54a15,15,0,0,1,6.66,1.71s.51.32.7-.17c.1-.26,1-2.61,1.06-2.87a.48.48,0,0,0-.25-.59,14.88,14.88,0,0,0-7.52-2h-.52c-4.8,0-8.15,2.9-8.15,7.05v.09c0,4.38,3.69,5.8,7.16,6.8l.55.17c2.53.77,4.7,1.44,4.7,3.22v.08c0,1.63-1.41,2.84-3.69,2.84a12.4,12.4,0,0,1-6.76-1.95c-.37-.21-.58-.37-.86-.54a.42.42,0,0,0-.69.24l-1,2.87Z"/><path class="cls-2" d="M113.84,92.83c-.16.42.06.5.11.58a14.89,14.89,0,0,0,1.46.88,15.63,15.63,0,0,0,7.65,1.79c5.24,0,8.5-2.79,8.5-7.28v-.09c0-4.16-3.67-5.66-7.12-6.75l-.45-.15c-2.6-.84-4.85-1.57-4.85-3.28v-.1c0-1.46,1.31-2.54,3.35-2.54a15,15,0,0,1,6.66,1.71s.51.32.7-.17c.1-.26,1-2.61,1.06-2.87a.48.48,0,0,0-.25-.59,14.88,14.88,0,0,0-7.52-2h-.52c-4.8,0-8.16,2.9-8.16,7.05v.09c0,4.38,3.7,5.8,7.17,6.8l.55.17c2.53.77,4.71,1.44,4.71,3.22v.08c0,1.63-1.42,2.84-3.7,2.84a12.4,12.4,0,0,1-6.76-1.95c-.37-.21-.58-.36-.86-.54a.45.45,0,0,0-.69.24l-1,2.87Z"/><path class="cls-2" d="M166.27,84a10.71,10.71,0,0,1-1.41,6,5.38,5.38,0,0,1-8.5,0A10.89,10.89,0,0,1,155,84a10.79,10.79,0,0,1,1.39-5.93A4.65,4.65,0,0,1,160.6,76a4.73,4.73,0,0,1,4.27,2.06,10.7,10.7,0,0,1,1.4,5.93m4.38-4.71a10.61,10.61,0,0,0-2-3.8A9.7,9.7,0,0,0,165.29,73a12.17,12.17,0,0,0-9.38,0,9.8,9.8,0,0,0-3.37,2.56,10.61,10.61,0,0,0-2,3.8,17.65,17.65,0,0,0,0,9.42,10.61,10.61,0,0,0,2,3.8,9.51,9.51,0,0,0,3.37,2.54,12.54,12.54,0,0,0,9.38,0,9.51,9.51,0,0,0,3.37-2.54,10.61,10.61,0,0,0,2-3.8,17.65,17.65,0,0,0,0-9.42"/><path class="cls-2" d="M206.61,91.38a.42.42,0,0,0-.56-.26,10.13,10.13,0,0,1-2,.58,16.37,16.37,0,0,1-2.41.17,6.66,6.66,0,0,1-5-1.87c-1.21-1.25-1.89-3.26-1.88-6a9.21,9.21,0,0,1,1.68-5.77,5.71,5.71,0,0,1,4.86-2.13,14.4,14.4,0,0,1,4.62.66s.35.15.51-.3c.38-1.07.67-1.83,1.08-3a.4.4,0,0,0-.27-.51,17,17,0,0,0-2.92-.74A22.83,22.83,0,0,0,201,72a11.84,11.84,0,0,0-4.88.94,10.08,10.08,0,0,0-3.53,2.55,10.93,10.93,0,0,0-2.13,3.81,15.19,15.19,0,0,0-.71,4.71,12.63,12.63,0,0,0,2.91,8.72c1.94,2.16,4.85,3.25,8.65,3.25a17.68,17.68,0,0,0,6.2-1.11.39.39,0,0,0,.17-.52l-1.07-3Z"/><path class="cls-2" d="M214.27,81.6a8.65,8.65,0,0,1,1.2-3.5A4.72,4.72,0,0,1,219.71,76a4.61,4.61,0,0,1,4.15,2.15,7.28,7.28,0,0,1,1,3.5ZM229,78.5A9.21,9.21,0,0,0,227.12,75a8.71,8.71,0,0,0-2.82-2.15,11,11,0,0,0-4.24-.86,11.64,11.64,0,0,0-4.9,1,9.77,9.77,0,0,0-3.41,2.61,10.64,10.64,0,0,0-2,3.85,16.74,16.74,0,0,0-.65,4.73,16.09,16.09,0,0,0,.67,4.73,10.06,10.06,0,0,0,2.15,3.77,9.83,9.83,0,0,0,3.73,2.47A15.13,15.13,0,0,0,221,96c4.28,0,6.54-1,7.47-1.48.16-.1.32-.26.12-.72l-1-2.71a.43.43,0,0,0-.56-.25A14.29,14.29,0,0,1,221,91.93a7,7,0,0,1-5.07-1.74c-1.1-1.09-1.63-2.68-1.73-4.94l14.83,0a.44.44,0,0,0,.43-.39A15.87,15.87,0,0,0,229,78.5Z"/><path class="cls-2" d="M95.55,81.6a8.8,8.8,0,0,1,1.2-3.5A4.73,4.73,0,0,1,101,76a4.62,4.62,0,0,1,4.16,2.15,7.39,7.39,0,0,1,1,3.5Zm14.74-3.1A9.07,9.07,0,0,0,108.4,75a8.68,8.68,0,0,0-2.81-2.15,11,11,0,0,0-4.25-.86,11.56,11.56,0,0,0-4.89,1A9.71,9.71,0,0,0,93,75.58a10.62,10.62,0,0,0-2,3.85,16.74,16.74,0,0,0-.66,4.73,15.76,15.76,0,0,0,.68,4.73,9.53,9.53,0,0,0,5.87,6.24,15.19,15.19,0,0,0,5.39.87c4.28,0,6.53-1,7.46-1.48.16-.1.32-.26.12-.72l-1-2.71a.43.43,0,0,0-.56-.25,14.35,14.35,0,0,1-6.09,1.09,7,7,0,0,1-5.07-1.74c-1.09-1.09-1.63-2.68-1.72-4.94l14.82,0a.44.44,0,0,0,.43-.39,15.87,15.87,0,0,0-.45-6.38Z"/><path class="cls-2" d="M63.51,91.3a2.93,2.93,0,0,1-.85-.87,3.63,3.63,0,0,1-.44-1.93,3.24,3.24,0,0,1,1.32-2.87s1.27-1.11,4.3-1.07a30.87,30.87,0,0,1,4,.34v6.74h0a30.69,30.69,0,0,1-4,.53c-3,.18-4.36-.87-4.35-.87m5.9-10.41c-.6,0-1.38-.07-2.31-.07a14,14,0,0,0-3.65.47,9.58,9.58,0,0,0-3.1,1.43,6.93,6.93,0,0,0-2.94,5.87A7.75,7.75,0,0,0,58.09,92,6.05,6.05,0,0,0,60,94.29a8.07,8.07,0,0,0,3,1.3A17.5,17.5,0,0,0,67,96a26.88,26.88,0,0,0,4.5-.38c1.45-.25,3.24-.61,3.73-.72l1-.27a.46.46,0,0,0,.34-.48V80.59c0-3-.79-5.17-2.35-6.54s-3.85-2-6.81-2a23.83,23.83,0,0,0-4,.37S60.2,73,58.87,74a.48.48,0,0,0-.14.6l1.05,2.81a.38.38,0,0,0,.49.25l.24-.12A15,15,0,0,1,67,76.06a6,6,0,0,1,3.67,1c.8.62,1.22,1.55,1.22,3.53v.63c-1.28-.19-2.45-.29-2.45-.29"/><path class="cls-2" d="M189,73.25a.39.39,0,0,0-.22-.53,12.46,12.46,0,0,0-2.49-.43,7.37,7.37,0,0,0-3.82.62,6.58,6.58,0,0,0-2.5,1.84V73a.43.43,0,0,0-.43-.45h-3.8a.43.43,0,0,0-.43.45V95.06a.46.46,0,0,0,.46.45h3.89a.45.45,0,0,0,.45-.45V84a12.89,12.89,0,0,1,.49-3.89,5.65,5.65,0,0,1,1.3-2.18,4.63,4.63,0,0,1,1.83-1.1,7.2,7.2,0,0,1,2-.28,8.44,8.44,0,0,1,1.63.2c.28,0,.44-.14.54-.4.25-.68,1-2.71,1.11-3.11"/><path class="cls-2" d="M152.42,63c-.48-.14-.91-.24-1.47-.35a11.78,11.78,0,0,0-2-.15,8.51,8.51,0,0,0-6.28,2.25,12.21,12.21,0,0,0-3,6.73l-.18,1h-3.37a.48.48,0,0,0-.49.43L135.09,76c0,.29.08.48.48.48h3.27L135.52,95a23.67,23.67,0,0,1-.89,3.66,7.45,7.45,0,0,1-1,2.1,2.74,2.74,0,0,1-1.36,1,5.54,5.54,0,0,1-1.74.25,6.77,6.77,0,0,1-1.19-.13,3.58,3.58,0,0,1-.8-.26.42.42,0,0,0-.54.24c-.12.32-1,2.72-1.1,3a.45.45,0,0,0,.23.6,12.35,12.35,0,0,0,1.36.39,8.63,8.63,0,0,0,2.17.21,11,11,0,0,0,3.64-.57,6.93,6.93,0,0,0,2.74-1.91,9.8,9.8,0,0,0,1.92-3.32,28.33,28.33,0,0,0,1.3-5l3.34-18.9h4.89A.48.48,0,0,0,149,76L149.5,73c0-.3-.08-.48-.48-.48h-4.74a21.17,21.17,0,0,1,.78-3.35,4.48,4.48,0,0,1,1-1.58,3.26,3.26,0,0,1,1.24-.77,5.28,5.28,0,0,1,1.6-.23,7,7,0,0,1,1.21.12,7.52,7.52,0,0,1,.76.19c.49.15.55,0,.65-.23l1.13-3.11a.4.4,0,0,0-.27-.52"/><path class="cls-2" d="M86.19,95.06a.42.42,0,0,1-.42.45H81.84a.43.43,0,0,1-.43-.45V63.43a.43.43,0,0,1,.43-.45h3.93a.42.42,0,0,1,.42.45V95.06Z"/></svg>