<?xml version="1.0" encoding="UTF-8"?><svg id="Layer_2" xmlns="http://www.w3.org/2000/svg" viewBox="0 0 41.13 40.6"><defs><style>.cls-1{fill:#c94727;stroke-width:0px;}</style></defs><g id="Layer_1-2"><path class="cls-1" d="m30.43,8.97c-5.77-5.39-15.14-4.7-20.55.71-4.95,4.95-5.28,13.27-1.87,18.99L0,40.6l9.82-9.82,5.36-5.35h0c-1.97-1.97-2.58-4.77-1.85-7.27.34-1.16.96-2.25,1.88-3.16,2.34-2.34,6.93-2.93,9.82-.66l5.41-5.37Z"/><path class="cls-1" d="m28.18,18.49c.26.75.4,1.55.4,2.39,0,4.02-3.26,7.28-7.28,7.28-1.95,0-3.73-.77-5.03-2.02L41.13,0l-12.95,18.49Z"/></g></svg>