<svg id="Layer_1" data-name="Layer 1" xmlns="http://www.w3.org/2000/svg" viewBox="0 0 300.51 67.53"><defs><style>.cls-1{fill:#5183c3;fill-rule:evenodd;}</style></defs><path class="cls-1" d="M244.67,20.25A14.63,14.63,0,0,1,246.32,27l.16,3.38V54l.17,3.38a10.36,10.36,0,0,0,10,10l3.37.17V30.4l.16-3.38a14.8,14.8,0,0,1,1.68-6.8,13.49,13.49,0,0,1,23.36.05A14.83,14.83,0,0,1,286.84,27l.16,3.37V54l.17,3.38a10.32,10.32,0,0,0,10,10l3.37.17V27A27,27,0,0,0,253.24,9.16a27,27,0,0,0-35.38-4.52C215.23,1.71,209.34,0,206,0V67.53l3.38-.17c5.65-.37,9.74-4.34,10-10l.18-3.38V30.4l.16-3.38a14.89,14.89,0,0,1,1.65-6.78,13.51,13.51,0,0,1,23.38,0ZM13.5,67.37l3.38.16H67.53l-.17-3.37a10.46,10.46,0,0,0-10-10L54,54H23.64L64.15,13.5,64,10.14a10.21,10.21,0,0,0-10-10L50.65,0,0,0,.17,3.38a10.47,10.47,0,0,0,10,10l3.38.17H43.89L3.38,54l.17,3.38a10.29,10.29,0,0,0,10,10ZM192.71,9.89a33.75,33.75,0,0,1,0,47.74h0a33.77,33.77,0,1,1,0-47.75Zm-9.56,9.56a20.26,20.26,0,1,1-28.65,0A20.26,20.26,0,0,1,183.15,19.45ZM97.94,0A33.77,33.77,0,1,1,74,9.89,33.74,33.74,0,0,1,97.94,0Zm14.31,19.44a20.27,20.27,0,1,1-28.66,0,20.27,20.27,0,0,1,28.66,0Z"/></svg>